<svg width="213" height="154" fill="none" xmlns="http://www.w3.org/2000/svg"><circle cx="1.776" cy="1.776" r="1.776" fill="#EBEBEB"/><circle cx="12.776" cy="1.776" r="1.776" fill="#EBEBEB"/><circle cx="23.776" cy="1.776" r="1.776" fill="#EBEBEB"/><circle cx="34.776" cy="1.776" r="1.776" fill="#EBEBEB"/><circle cx="45.776" cy="1.776" r="1.776" fill="#EBEBEB"/><circle cx="56.776" cy="1.776" r="1.776" fill="#EBEBEB"/><circle cx="67.776" cy="1.776" r="1.776" fill="#EBEBEB"/><circle cx="78.776" cy="1.776" r="1.776" fill="#EBEBEB"/><circle cx="89.776" cy="1.776" r="1.776" fill="#EBEBEB"/><circle cx="100.776" cy="1.776" r="1.776" fill="#EBEBEB"/><circle cx="111.776" cy="1.776" r="1.776" fill="#EBEBEB"/><circle cx="122.776" cy="1.776" r="1.776" fill="#EBEBEB"/><circle cx="133.776" cy="1.776" r="1.776" fill="#EBEBEB"/><circle cx="144.776" cy="1.776" r="1.776" fill="#EBEBEB"/><circle cx="155.776" cy="1.776" r="1.776" fill="#EBEBEB"/><circle cx="166.776" cy="1.776" r="1.776" fill="#EBEBEB"/><circle cx="177.776" cy="1.776" r="1.776" fill="#EBEBEB"/><circle cx="188.776" cy="1.776" r="1.776" fill="#EBEBEB"/><circle cx="199.776" cy="1.776" r="1.776" fill="#EBEBEB"/><circle cx="210.776" cy="1.776" r="1.776" fill="#EBEBEB"/><circle cx="1.776" cy="11.776" r="1.776" fill="#EBEBEB"/><circle cx="12.776" cy="11.776" r="1.776" fill="#EBEBEB"/><circle cx="23.776" cy="11.776" r="1.776" fill="#EBEBEB"/><circle cx="34.776" cy="11.776" r="1.776" fill="#EBEBEB"/><circle cx="45.776" cy="11.776" r="1.776" fill="#EBEBEB"/><circle cx="56.776" cy="11.776" r="1.776" fill="#EBEBEB"/><circle cx="67.776" cy="11.776" r="1.776" fill="#EBEBEB"/><circle cx="78.776" cy="11.776" r="1.776" fill="#EBEBEB"/><circle cx="89.776" cy="11.776" r="1.776" fill="#EBEBEB"/><circle cx="100.776" cy="11.776" r="1.776" fill="#EBEBEB"/><circle cx="111.776" cy="11.776" r="1.776" fill="#EBEBEB"/><circle cx="122.776" cy="11.776" r="1.776" fill="#EBEBEB"/><circle cx="133.776" cy="11.776" r="1.776" fill="#EBEBEB"/><circle cx="144.776" cy="11.776" r="1.776" fill="#EBEBEB"/><circle cx="155.776" cy="11.776" r="1.776" fill="#EBEBEB"/><circle cx="166.776" cy="11.776" r="1.776" fill="#EBEBEB"/><circle cx="177.776" cy="11.776" r="1.776" fill="#EBEBEB"/><circle cx="188.776" cy="11.776" r="1.776" fill="#EBEBEB"/><circle cx="199.776" cy="11.776" r="1.776" fill="#EBEBEB"/><circle cx="210.776" cy="11.776" r="1.776" fill="#EBEBEB"/><circle cx="1.776" cy="21.776" r="1.776" fill="#EBEBEB"/><circle cx="12.776" cy="21.776" r="1.776" fill="#EBEBEB"/><circle cx="23.776" cy="21.776" r="1.776" fill="#EBEBEB"/><circle cx="34.776" cy="21.776" r="1.776" fill="#EBEBEB"/><circle cx="45.776" cy="21.776" r="1.776" fill="#EBEBEB"/><circle cx="56.776" cy="21.776" r="1.776" fill="#EBEBEB"/><circle cx="67.776" cy="21.776" r="1.776" fill="#EBEBEB"/><circle cx="78.776" cy="21.776" r="1.776" fill="#EBEBEB"/><circle cx="89.776" cy="21.776" r="1.776" fill="#EBEBEB"/><circle cx="100.776" cy="21.776" r="1.776" fill="#EBEBEB"/><circle cx="111.776" cy="21.776" r="1.776" fill="#EBEBEB"/><circle cx="122.776" cy="21.776" r="1.776" fill="#EBEBEB"/><circle cx="133.776" cy="21.776" r="1.776" fill="#EBEBEB"/><circle cx="144.776" cy="21.776" r="1.776" fill="#EBEBEB"/><circle cx="155.776" cy="21.776" r="1.776" fill="#EBEBEB"/><circle cx="166.776" cy="21.776" r="1.776" fill="#EBEBEB"/><circle cx="177.776" cy="21.776" r="1.776" fill="#EBEBEB"/><circle cx="188.776" cy="21.776" r="1.776" fill="#EBEBEB"/><circle cx="199.776" cy="21.776" r="1.776" fill="#EBEBEB"/><circle cx="210.776" cy="21.776" r="1.776" fill="#EBEBEB"/><circle cx="1.776" cy="31.776" r="1.776" fill="#EBEBEB"/><circle cx="12.776" cy="31.776" r="1.776" fill="#EBEBEB"/><circle cx="23.776" cy="31.776" r="1.776" fill="#EBEBEB"/><circle cx="34.776" cy="31.776" r="1.776" fill="#EBEBEB"/><circle cx="45.776" cy="31.776" r="1.776" fill="#EBEBEB"/><circle cx="56.776" cy="31.776" r="1.776" fill="#EBEBEB"/><circle cx="67.776" cy="31.776" r="1.776" fill="#EBEBEB"/><circle cx="78.776" cy="31.776" r="1.776" fill="#EBEBEB"/><circle cx="89.776" cy="31.776" r="1.776" fill="#EBEBEB"/><circle cx="100.776" cy="31.776" r="1.776" fill="#EBEBEB"/><circle cx="111.776" cy="31.776" r="1.776" fill="#EBEBEB"/><circle cx="122.776" cy="31.776" r="1.776" fill="#EBEBEB"/><circle cx="133.776" cy="31.776" r="1.776" fill="#EBEBEB"/><circle cx="144.776" cy="31.776" r="1.776" fill="#EBEBEB"/><circle cx="155.776" cy="31.776" r="1.776" fill="#EBEBEB"/><circle cx="166.776" cy="31.776" r="1.776" fill="#EBEBEB"/><circle cx="177.776" cy="31.776" r="1.776" fill="#EBEBEB"/><circle cx="188.776" cy="31.776" r="1.776" fill="#EBEBEB"/><circle cx="199.776" cy="31.776" r="1.776" fill="#EBEBEB"/><circle cx="210.776" cy="31.776" r="1.776" fill="#EBEBEB"/><circle cx="1.776" cy="41.776" r="1.776" fill="#EBEBEB"/><circle cx="12.776" cy="41.776" r="1.776" fill="#EBEBEB"/><circle cx="23.776" cy="41.776" r="1.776" fill="#EBEBEB"/><circle cx="34.776" cy="41.776" r="1.776" fill="#EBEBEB"/><circle cx="45.776" cy="41.776" r="1.776" fill="#EBEBEB"/><circle cx="56.776" cy="41.776" r="1.776" fill="#EBEBEB"/><circle cx="67.776" cy="41.776" r="1.776" fill="#EBEBEB"/><circle cx="78.776" cy="41.776" r="1.776" fill="#EBEBEB"/><circle cx="89.776" cy="41.776" r="1.776" fill="#EBEBEB"/><circle cx="100.776" cy="41.776" r="1.776" fill="#EBEBEB"/><circle cx="111.776" cy="41.776" r="1.776" fill="#EBEBEB"/><circle cx="122.776" cy="41.776" r="1.776" fill="#EBEBEB"/><circle cx="133.776" cy="41.776" r="1.776" fill="#EBEBEB"/><circle cx="144.776" cy="41.776" r="1.776" fill="#EBEBEB"/><circle cx="155.776" cy="41.776" r="1.776" fill="#EBEBEB"/><circle cx="166.776" cy="41.776" r="1.776" fill="#EBEBEB"/><circle cx="177.776" cy="41.776" r="1.776" fill="#EBEBEB"/><circle cx="188.776" cy="41.776" r="1.776" fill="#EBEBEB"/><circle cx="199.776" cy="41.776" r="1.776" fill="#EBEBEB"/><circle cx="210.776" cy="41.776" r="1.776" fill="#EBEBEB"/><circle cx="1.776" cy="51.776" r="1.776" fill="#EBEBEB"/><circle cx="12.776" cy="51.776" r="1.776" fill="#EBEBEB"/><circle cx="23.776" cy="51.776" r="1.776" fill="#EBEBEB"/><circle cx="34.776" cy="51.776" r="1.776" fill="#EBEBEB"/><circle cx="45.776" cy="51.776" r="1.776" fill="#EBEBEB"/><circle cx="56.776" cy="51.776" r="1.776" fill="#EBEBEB"/><circle cx="67.776" cy="51.776" r="1.776" fill="#EBEBEB"/><circle cx="78.776" cy="51.776" r="1.776" fill="#EBEBEB"/><circle cx="89.776" cy="51.776" r="1.776" fill="#EBEBEB"/><circle cx="100.776" cy="51.776" r="1.776" fill="#EBEBEB"/><circle cx="111.776" cy="51.776" r="1.776" fill="#EBEBEB"/><circle cx="122.776" cy="51.776" r="1.776" fill="#EBEBEB"/><circle cx="133.776" cy="51.776" r="1.776" fill="#EBEBEB"/><circle cx="144.776" cy="51.776" r="1.776" fill="#EBEBEB"/><circle cx="155.776" cy="51.776" r="1.776" fill="#EBEBEB"/><circle cx="166.776" cy="51.776" r="1.776" fill="#EBEBEB"/><circle cx="177.776" cy="51.776" r="1.776" fill="#EBEBEB"/><circle cx="188.776" cy="51.776" r="1.776" fill="#EBEBEB"/><circle cx="199.776" cy="51.776" r="1.776" fill="#EBEBEB"/><circle cx="210.776" cy="51.776" r="1.776" fill="#EBEBEB"/><circle cx="1.776" cy="61.776" r="1.776" fill="#EBEBEB"/><circle cx="12.776" cy="61.776" r="1.776" fill="#EBEBEB"/><circle cx="23.776" cy="61.776" r="1.776" fill="#EBEBEB"/><circle cx="34.776" cy="61.776" r="1.776" fill="#EBEBEB"/><circle cx="45.776" cy="61.776" r="1.776" fill="#EBEBEB"/><circle cx="56.776" cy="61.776" r="1.776" fill="#EBEBEB"/><circle cx="67.776" cy="61.776" r="1.776" fill="#EBEBEB"/><circle cx="78.776" cy="61.776" r="1.776" fill="#EBEBEB"/><circle cx="89.776" cy="61.776" r="1.776" fill="#EBEBEB"/><circle cx="100.776" cy="61.776" r="1.776" fill="#EBEBEB"/><circle cx="111.776" cy="61.776" r="1.776" fill="#EBEBEB"/><circle cx="122.776" cy="61.776" r="1.776" fill="#EBEBEB"/><circle cx="133.776" cy="61.776" r="1.776" fill="#EBEBEB"/><circle cx="144.776" cy="61.776" r="1.776" fill="#EBEBEB"/><circle cx="155.776" cy="61.776" r="1.776" fill="#EBEBEB"/><circle cx="166.776" cy="61.776" r="1.776" fill="#EBEBEB"/><circle cx="177.776" cy="61.776" r="1.776" fill="#EBEBEB"/><circle cx="188.776" cy="61.776" r="1.776" fill="#EBEBEB"/><circle cx="199.776" cy="61.776" r="1.776" fill="#EBEBEB"/><circle cx="210.776" cy="61.776" r="1.776" fill="#EBEBEB"/><circle cx="1.776" cy="71.776" r="1.776" fill="#EBEBEB"/><circle cx="12.776" cy="71.776" r="1.776" fill="#EBEBEB"/><circle cx="23.776" cy="71.776" r="1.776" fill="#EBEBEB"/><circle cx="34.776" cy="71.776" r="1.776" fill="#EBEBEB"/><circle cx="45.776" cy="71.776" r="1.776" fill="#EBEBEB"/><circle cx="56.776" cy="71.776" r="1.776" fill="#EBEBEB"/><circle cx="67.776" cy="71.776" r="1.776" fill="#EBEBEB"/><circle cx="78.776" cy="71.776" r="1.776" fill="#EBEBEB"/><circle cx="89.776" cy="71.776" r="1.776" fill="#EBEBEB"/><circle cx="100.776" cy="71.776" r="1.776" fill="#EBEBEB"/><circle cx="111.776" cy="71.776" r="1.776" fill="#EBEBEB"/><circle cx="122.776" cy="71.776" r="1.776" fill="#EBEBEB"/><circle cx="133.776" cy="71.776" r="1.776" fill="#EBEBEB"/><circle cx="144.776" cy="71.776" r="1.776" fill="#EBEBEB"/><circle cx="155.776" cy="71.776" r="1.776" fill="#EBEBEB"/><circle cx="166.776" cy="71.776" r="1.776" fill="#EBEBEB"/><circle cx="177.776" cy="71.776" r="1.776" fill="#EBEBEB"/><circle cx="188.776" cy="71.776" r="1.776" fill="#EBEBEB"/><circle cx="199.776" cy="71.776" r="1.776" fill="#EBEBEB"/><circle cx="210.776" cy="71.776" r="1.776" fill="#EBEBEB"/><circle cx="1.776" cy="81.776" r="1.776" fill="#EBEBEB"/><circle cx="12.776" cy="81.776" r="1.776" fill="#EBEBEB"/><circle cx="23.776" cy="81.776" r="1.776" fill="#EBEBEB"/><circle cx="34.776" cy="81.776" r="1.776" fill="#EBEBEB"/><circle cx="45.776" cy="81.776" r="1.776" fill="#EBEBEB"/><circle cx="56.776" cy="81.776" r="1.776" fill="#EBEBEB"/><circle cx="67.776" cy="81.776" r="1.776" fill="#EBEBEB"/><circle cx="78.776" cy="81.776" r="1.776" fill="#EBEBEB"/><circle cx="89.776" cy="81.776" r="1.776" fill="#EBEBEB"/><circle cx="100.776" cy="81.776" r="1.776" fill="#EBEBEB"/><circle cx="111.776" cy="81.776" r="1.776" fill="#EBEBEB"/><circle cx="122.776" cy="81.776" r="1.776" fill="#EBEBEB"/><circle cx="133.776" cy="81.776" r="1.776" fill="#EBEBEB"/><circle cx="144.776" cy="81.776" r="1.776" fill="#EBEBEB"/><circle cx="155.776" cy="81.776" r="1.776" fill="#EBEBEB"/><circle cx="166.776" cy="81.776" r="1.776" fill="#EBEBEB"/><circle cx="177.776" cy="81.776" r="1.776" fill="#EBEBEB"/><circle cx="188.776" cy="81.776" r="1.776" fill="#EBEBEB"/><circle cx="199.776" cy="81.776" r="1.776" fill="#EBEBEB"/><circle cx="210.776" cy="81.776" r="1.776" fill="#EBEBEB"/><circle cx="1.776" cy="91.776" r="1.776" fill="#EBEBEB"/><circle cx="12.776" cy="91.776" r="1.776" fill="#EBEBEB"/><circle cx="23.776" cy="91.776" r="1.776" fill="#EBEBEB"/><circle cx="34.776" cy="91.776" r="1.776" fill="#EBEBEB"/><circle cx="45.776" cy="91.776" r="1.776" fill="#EBEBEB"/><circle cx="56.776" cy="91.776" r="1.776" fill="#EBEBEB"/><circle cx="67.776" cy="91.776" r="1.776" fill="#EBEBEB"/><circle cx="78.776" cy="91.776" r="1.776" fill="#EBEBEB"/><circle cx="89.776" cy="91.776" r="1.776" fill="#EBEBEB"/><circle cx="100.776" cy="91.776" r="1.776" fill="#EBEBEB"/><circle cx="111.776" cy="91.776" r="1.776" fill="#EBEBEB"/><circle cx="122.776" cy="91.776" r="1.776" fill="#EBEBEB"/><circle cx="133.776" cy="91.776" r="1.776" fill="#EBEBEB"/><circle cx="144.776" cy="91.776" r="1.776" fill="#EBEBEB"/><circle cx="155.776" cy="91.776" r="1.776" fill="#EBEBEB"/><circle cx="166.776" cy="91.776" r="1.776" fill="#EBEBEB"/><circle cx="177.776" cy="91.776" r="1.776" fill="#EBEBEB"/><circle cx="188.776" cy="91.776" r="1.776" fill="#EBEBEB"/><circle cx="199.776" cy="91.776" r="1.776" fill="#EBEBEB"/><circle cx="210.776" cy="91.776" r="1.776" fill="#EBEBEB"/><circle cx="1.776" cy="101.776" r="1.776" fill="#EBEBEB"/><circle cx="12.776" cy="101.776" r="1.776" fill="#EBEBEB"/><circle cx="23.776" cy="101.776" r="1.776" fill="#EBEBEB"/><circle cx="34.776" cy="101.776" r="1.776" fill="#EBEBEB"/><circle cx="45.776" cy="101.776" r="1.776" fill="#EBEBEB"/><circle cx="56.776" cy="101.776" r="1.776" fill="#EBEBEB"/><circle cx="67.776" cy="101.776" r="1.776" fill="#EBEBEB"/><circle cx="78.776" cy="101.776" r="1.776" fill="#EBEBEB"/><circle cx="89.776" cy="101.776" r="1.776" fill="#EBEBEB"/><circle cx="100.776" cy="101.776" r="1.776" fill="#EBEBEB"/><circle cx="111.776" cy="101.776" r="1.776" fill="#EBEBEB"/><circle cx="122.776" cy="101.776" r="1.776" fill="#EBEBEB"/><circle cx="133.776" cy="101.776" r="1.776" fill="#EBEBEB"/><circle cx="144.776" cy="101.776" r="1.776" fill="#EBEBEB"/><circle cx="155.776" cy="101.776" r="1.776" fill="#EBEBEB"/><circle cx="166.776" cy="101.776" r="1.776" fill="#EBEBEB"/><circle cx="177.776" cy="101.776" r="1.776" fill="#EBEBEB"/><circle cx="188.776" cy="101.776" r="1.776" fill="#EBEBEB"/><circle cx="199.776" cy="101.776" r="1.776" fill="#EBEBEB"/><circle cx="210.776" cy="101.776" r="1.776" fill="#EBEBEB"/><circle cx="1.776" cy="111.776" r="1.776" fill="#EBEBEB"/><circle cx="12.776" cy="111.776" r="1.776" fill="#EBEBEB"/><circle cx="23.776" cy="111.776" r="1.776" fill="#EBEBEB"/><circle cx="34.776" cy="111.776" r="1.776" fill="#EBEBEB"/><circle cx="45.776" cy="111.776" r="1.776" fill="#EBEBEB"/><circle cx="56.776" cy="111.776" r="1.776" fill="#EBEBEB"/><circle cx="67.776" cy="111.776" r="1.776" fill="#EBEBEB"/><circle cx="78.776" cy="111.776" r="1.776" fill="#EBEBEB"/><circle cx="89.776" cy="111.776" r="1.776" fill="#EBEBEB"/><circle cx="100.776" cy="111.776" r="1.776" fill="#EBEBEB"/><circle cx="111.776" cy="111.776" r="1.776" fill="#EBEBEB"/><circle cx="122.776" cy="111.776" r="1.776" fill="#EBEBEB"/><circle cx="133.776" cy="111.776" r="1.776" fill="#EBEBEB"/><circle cx="144.776" cy="111.776" r="1.776" fill="#EBEBEB"/><circle cx="155.776" cy="111.776" r="1.776" fill="#EBEBEB"/><circle cx="166.776" cy="111.776" r="1.776" fill="#EBEBEB"/><circle cx="177.776" cy="111.776" r="1.776" fill="#EBEBEB"/><circle cx="188.776" cy="111.776" r="1.776" fill="#EBEBEB"/><circle cx="199.776" cy="111.776" r="1.776" fill="#EBEBEB"/><circle cx="210.776" cy="111.776" r="1.776" fill="#EBEBEB"/><circle cx="1.776" cy="121.776" r="1.776" fill="#EBEBEB"/><circle cx="12.776" cy="121.776" r="1.776" fill="#EBEBEB"/><circle cx="23.776" cy="121.776" r="1.776" fill="#EBEBEB"/><circle cx="34.776" cy="121.776" r="1.776" fill="#EBEBEB"/><circle cx="45.776" cy="121.776" r="1.776" fill="#EBEBEB"/><circle cx="56.776" cy="121.776" r="1.776" fill="#EBEBEB"/><circle cx="67.776" cy="121.776" r="1.776" fill="#EBEBEB"/><circle cx="78.776" cy="121.776" r="1.776" fill="#EBEBEB"/><circle cx="89.776" cy="121.776" r="1.776" fill="#EBEBEB"/><circle cx="100.776" cy="121.776" r="1.776" fill="#EBEBEB"/><circle cx="111.776" cy="121.776" r="1.776" fill="#EBEBEB"/><circle cx="122.776" cy="121.776" r="1.776" fill="#EBEBEB"/><circle cx="133.776" cy="121.776" r="1.776" fill="#EBEBEB"/><circle cx="144.776" cy="121.776" r="1.776" fill="#EBEBEB"/><circle cx="155.776" cy="121.776" r="1.776" fill="#EBEBEB"/><circle cx="166.776" cy="121.776" r="1.776" fill="#EBEBEB"/><circle cx="177.776" cy="121.776" r="1.776" fill="#EBEBEB"/><circle cx="188.776" cy="121.776" r="1.776" fill="#EBEBEB"/><circle cx="199.776" cy="121.776" r="1.776" fill="#EBEBEB"/><circle cx="210.776" cy="121.776" r="1.776" fill="#EBEBEB"/><circle cx="1.776" cy="131.776" r="1.776" fill="#EBEBEB"/><circle cx="12.776" cy="131.776" r="1.776" fill="#EBEBEB"/><circle cx="23.776" cy="131.776" r="1.776" fill="#EBEBEB"/><circle cx="34.776" cy="131.776" r="1.776" fill="#EBEBEB"/><circle cx="45.776" cy="131.776" r="1.776" fill="#EBEBEB"/><circle cx="56.776" cy="131.776" r="1.776" fill="#EBEBEB"/><circle cx="67.776" cy="131.776" r="1.776" fill="#EBEBEB"/><circle cx="78.776" cy="131.776" r="1.776" fill="#EBEBEB"/><circle cx="89.776" cy="131.776" r="1.776" fill="#EBEBEB"/><circle cx="100.776" cy="131.776" r="1.776" fill="#EBEBEB"/><circle cx="111.776" cy="131.776" r="1.776" fill="#EBEBEB"/><circle cx="122.776" cy="131.776" r="1.776" fill="#EBEBEB"/><circle cx="133.776" cy="131.776" r="1.776" fill="#EBEBEB"/><circle cx="144.776" cy="131.776" r="1.776" fill="#EBEBEB"/><circle cx="155.776" cy="131.776" r="1.776" fill="#EBEBEB"/><circle cx="166.776" cy="131.776" r="1.776" fill="#EBEBEB"/><circle cx="177.776" cy="131.776" r="1.776" fill="#EBEBEB"/><circle cx="188.776" cy="131.776" r="1.776" fill="#EBEBEB"/><circle cx="199.776" cy="131.776" r="1.776" fill="#EBEBEB"/><circle cx="210.776" cy="131.776" r="1.776" fill="#EBEBEB"/><circle cx="1.776" cy="141.776" r="1.776" fill="#EBEBEB"/><circle cx="12.776" cy="141.776" r="1.776" fill="#EBEBEB"/><circle cx="23.776" cy="141.776" r="1.776" fill="#EBEBEB"/><circle cx="34.776" cy="141.776" r="1.776" fill="#EBEBEB"/><circle cx="45.776" cy="141.776" r="1.776" fill="#EBEBEB"/><circle cx="56.776" cy="141.776" r="1.776" fill="#EBEBEB"/><circle cx="67.776" cy="141.776" r="1.776" fill="#EBEBEB"/><circle cx="78.776" cy="141.776" r="1.776" fill="#EBEBEB"/><circle cx="89.776" cy="141.776" r="1.776" fill="#EBEBEB"/><circle cx="100.776" cy="141.776" r="1.776" fill="#EBEBEB"/><circle cx="111.776" cy="141.776" r="1.776" fill="#EBEBEB"/><circle cx="122.776" cy="141.776" r="1.776" fill="#EBEBEB"/><circle cx="133.776" cy="141.776" r="1.776" fill="#EBEBEB"/><circle cx="144.776" cy="141.776" r="1.776" fill="#EBEBEB"/><circle cx="155.776" cy="141.776" r="1.776" fill="#EBEBEB"/><circle cx="166.776" cy="141.776" r="1.776" fill="#EBEBEB"/><circle cx="177.776" cy="141.776" r="1.776" fill="#EBEBEB"/><circle cx="188.776" cy="141.776" r="1.776" fill="#EBEBEB"/><circle cx="199.776" cy="141.776" r="1.776" fill="#EBEBEB"/><circle cx="210.776" cy="141.776" r="1.776" fill="#EBEBEB"/><circle cx="1.776" cy="151.776" r="1.776" fill="#EBEBEB"/><circle cx="12.776" cy="151.776" r="1.776" fill="#EBEBEB"/><circle cx="23.776" cy="151.776" r="1.776" fill="#EBEBEB"/><circle cx="34.776" cy="151.776" r="1.776" fill="#EBEBEB"/><circle cx="45.776" cy="151.776" r="1.776" fill="#EBEBEB"/><circle cx="56.776" cy="151.776" r="1.776" fill="#EBEBEB"/><circle cx="67.776" cy="151.776" r="1.776" fill="#EBEBEB"/><circle cx="78.776" cy="151.776" r="1.776" fill="#EBEBEB"/><circle cx="89.776" cy="151.776" r="1.776" fill="#EBEBEB"/><circle cx="100.776" cy="151.776" r="1.776" fill="#EBEBEB"/><circle cx="111.776" cy="151.776" r="1.776" fill="#EBEBEB"/><circle cx="122.776" cy="151.776" r="1.776" fill="#EBEBEB"/><circle cx="133.776" cy="151.776" r="1.776" fill="#EBEBEB"/><circle cx="144.776" cy="151.776" r="1.776" fill="#EBEBEB"/><circle cx="155.776" cy="151.776" r="1.776" fill="#EBEBEB"/><circle cx="166.776" cy="151.776" r="1.776" fill="#EBEBEB"/><circle cx="177.776" cy="151.776" r="1.776" fill="#EBEBEB"/><circle cx="188.776" cy="151.776" r="1.776" fill="#EBEBEB"/><circle cx="199.776" cy="151.776" r="1.776" fill="#EBEBEB"/><circle cx="210.776" cy="151.776" r="1.776" fill="#EBEBEB"/></svg>